{"title":"The Mechanic(2011)MPEG-4[DaScubaDude]","uid":13669945,"size":927102969,"categoryP":"video","categoryS":"movies","magnet":"?xt=urn:btih:76c05ed49977eb9be145f6a5588544e41ff1be45&amp;dn=The+Mechanic%282011%29MPEG-4%5BDaScubaDude%5D&amp;tr=udp%3A%2F%2Ftracker.leechers-paradise.org%3A6969&amp;tr=udp%3A%2F%2Fzer0day.ch%3A1337&amp;tr=udp%3A%2F%2Fopen.demonii.com%3A1337&amp;tr=udp%3A%2F%2Ftracker.coppersurfer.tk%3A6969&amp;tr=udp%3A%2F%2Fexodus.desync.com%3A6969","seeders":0,"leechers":0,"uploader":"dascuba","files":1,"time":1456306955,"description":"The Mechanic (2011)\r\nR | 1h 33min | Action, Crime, Thriller | 28 January 2011 (USA)\r\nFollows an elite hit man as he teaches his trade to an apprentice who has a connection to one of his previous victims.\r\nDirector: Simon West\r\nWriters: Richard Wenk (screenplay), Lewis John Carlino (screenplay) | 1 more credit »\r\nStars: Jason Statham, Ben Foster, Donald Sutherland \r\n\r\nGeneral\r\nComplete name                            : The MechanicTHE_MECHANIC_Title1.mp4\r\nFormat                                   : MPEG-4\r\nFormat profile                           : Base Media\r\nCodec ID                                 : isom\r\nFile size                                : 884 MiB\r\nDuration                                 : 1h 32mn\r\nOverall bit rate                         : 1 334 Kbps\r\nMovie name                               : THE_MECHANIC\r\nGenre                                    : action_crime\r\nWriting application                      : Lavf54.6.100\r\n\r\nVideo\r\nID                                       : 1\r\nFormat                                   : AVC\r\nFormat/Info                              : Advanced Video Codec\r\nFormat profile                           :   \r\nFormat settings, CABAC                   : No\r\nFormat settings, ReFrames                : 6 frames\r\nCodec ID                                 : avc1\r\nCodec ID/Info                            : Advanced Video Coding\r\nDuration                                 : 1h 32mn\r\nBit rate                                 : 1 199 Kbps\r\nWidth                                    : 720 pixels\r\nHeight                                   : 404 pixels\r\nDisplay aspect ratio                     : 16:9\r\nFrame rate mode                          : Constant\r\nFrame rate                               : 29.970 fps\r\nColor space                              : YUV\r\nChroma subsampling                       : 4:2:0\r\nBit depth                                : 8 bits\r\nScan type                                : Progressive\r\nBits/(Pixel*Frame)                       : 0.138\r\nStream size                              : 795 MiB (90%)\r\n\r\nAudio\r\nID                                       : 2\r\nFormat                                   : AAC\r\nFormat/Info                              : Advanced Audio Codec\r\nFormat profile                           : LC\r\nCodec ID                                 : 40\r\nDuration                                 : 1h 32mn\r\nBit rate mode                            : Constant\r\nBit rate                                 : 128 Kbps\r\nChannel(s)                               : 2 channels\r\nChannel positions                        : Front: L R\r\nSampling rate                            : 44.1 KHz\r\nCompression mode                         : Lossy\r\nStream size                              : 84.8 MiB (10%)","torrent":{"xt":"urn:btih:76c05ed49977eb9be145f6a5588544e41ff1be45","amp;dn":"The+Mechanic%282011%29MPEG-4%5BDaScubaDude%5D","amp;tr":["udp%3A%2F%2Ftracker.leechers-paradise.org%3A6969","udp%3A%2F%2Fzer0day.ch%3A1337","udp%3A%2F%2Fopen.demonii.com%3A1337","udp%3A%2F%2Ftracker.coppersurfer.tk%3A6969","udp%3A%2F%2Fexodus.desync.com%3A6969"],"infoHash":"76c05ed49977eb9be145f6a5588544e41ff1be45","infoHashBuffer":{"type":"Buffer","data":[118,192,94,212,153,119,235,155,225,69,246,165,88,133,68,228,31,241,190,69]},"announce":[],"urlList":[]}}